<svg xmlns="http://www.w3.org/2000/svg" width="463" height="180" viewBox="0 0 463 180" version="1.1"><path d="M 174.323 56.360 C 178.075 57.648, 182.039 59.595, 183.131 60.687 C 184.223 61.778, 187.688 69.383, 190.832 77.586 L 196.547 92.500 203.040 92.790 L 209.532 93.081 213.366 82.790 C 215.475 77.131, 218.722 68.338, 220.582 63.250 L 223.964 54 218.075 54 L 212.186 54 208.539 65.750 C 206.533 72.213, 204.529 78.625, 204.085 80 C 203.412 82.087, 202.544 80.189, 198.831 68.500 L 194.383 54.500 180.942 54.260 L 167.500 54.019 174.323 56.360 M 238.488 55.250 C 238.240 55.938, 235.104 64.317, 231.519 73.871 C 227.934 83.425, 225 91.637, 225 92.121 C 225 92.604, 227.498 93, 230.552 93 C 235.822 93, 236.157 92.848, 237.150 90 C 238.177 87.055, 238.322 87, 245.150 87 C 251.978 87, 252.123 87.055, 253.150 90 C 254.155 92.884, 254.427 93, 260.205 93 C 264.581 93, 266.094 92.660, 265.773 91.750 C 265.530 91.063, 262.258 82.287, 258.501 72.250 L 251.670 54 245.304 54 C 241.117 54, 238.783 54.428, 238.488 55.250 M 270.801 68.250 C 270.636 76.088, 270.636 84.862, 270.802 87.750 L 271.105 93 286.052 93 L 301 93 301 88.500 L 301 84 291.500 84 L 282 84 282 69 L 282 54 276.551 54 L 271.103 54 270.801 68.250 M 304.750 55.647 C 306.871 57.152, 307 57.937, 307 69.306 C 307 79.412, 307.332 82.054, 309.044 85.591 C 311.752 91.185, 316.235 93.307, 325.518 93.389 C 334.355 93.466, 338.568 91.293, 341.750 85.015 C 343.748 81.074, 344 79.086, 344 67.288 L 344 54 335.750 54.052 C 327.958 54.102, 327.625 54.192, 329.750 55.674 C 331.869 57.153, 332 57.936, 332 69.122 C 332 79.667, 331.775 81.225, 330 83 C 327.500 85.500, 323.913 85.560, 320.937 83.150 C 318.799 81.419, 318.631 80.443, 318.316 67.900 L 317.978 54.500 310.239 54.275 C 302.907 54.062, 302.618 54.134, 304.750 55.647 M 352 73.476 L 352 93 369.057 93 L 386.115 93 385.807 88.750 L 385.500 84.500 374.749 84.500 L 363.998 84.500 363.999 80.250 L 364 76 375 76 L 386 76 386 72.500 L 386 69 375 69 L 364 69 364 65.500 L 364 62 375.060 62 L 386.121 62 385.810 58.250 L 385.500 54.500 368.750 54.226 L 352 53.952 352 73.476 M 244.650 66 C 243.884 67.815, 241.026 77.279, 241.011 78.049 C 241.005 78.351, 242.799 78.576, 244.997 78.549 C 249.625 78.492, 249.724 78.089, 247.080 70 C 245.931 66.484, 245.055 65.041, 244.650 66 M 194.555 109.250 C 193.148 110.487, 191.721 112.944, 191.382 114.710 C 190.524 119.182, 195.212 124, 200.423 124 C 202.996 124, 204 123.562, 204 122.441 C 204 121.584, 203.524 121.176, 202.943 121.535 C 201.108 122.669, 197.087 121.063, 195.430 118.533 C 192.673 114.326, 195.825 109, 201.071 109 C 202.682 109, 204 108.550, 204 108 C 204 106.047, 197.167 106.951, 194.555 109.250 M 217 115.552 L 217 124.105 222.250 123.802 C 228.287 123.455, 229.323 121.651, 223.750 121.190 L 220 120.879 220 113.940 C 220 108.438, 219.689 107, 218.500 107 C 217.284 107, 217 108.617, 217 115.552 M 241.174 109.314 C 237.929 112.769, 238.163 119.197, 241.635 121.927 C 249.771 128.328, 259.393 117.854, 252.927 109.635 C 250.159 106.115, 244.329 105.956, 241.174 109.314 M 268 113.845 C 268 119.206, 268.396 121.049, 269.829 122.345 C 271.721 124.057, 276.608 124.537, 278.687 123.214 C 281.930 121.153, 283.512 107, 280.500 107 C 279.335 107, 279 108.325, 279 112.929 C 279 116.985, 278.504 119.353, 277.429 120.429 C 273.585 124.272, 271 121.406, 271 113.300 C 271 108.367, 270.675 107, 269.500 107 C 268.313 107, 268 108.427, 268 113.845 M 295 115.627 L 295 124.254 300.191 123.756 C 306.272 123.171, 310 119.806, 310 114.899 C 310 110.068, 306.134 107, 300.045 107 L 295 107 295 115.627 M 338 115.550 L 338 124.100 343.512 123.800 C 349.925 123.451, 350.925 121.644, 344.956 121.189 C 341.405 120.919, 340.917 120.595, 341.188 118.689 C 341.436 116.951, 342.272 116.436, 345.250 116.190 C 350.302 115.772, 350.043 114, 344.930 114 C 341.282 114, 340.894 113.767, 341.180 111.750 C 341.437 109.943, 342.238 109.439, 345.250 109.190 C 351.046 108.710, 349.679 107, 343.500 107 L 338 107 338 115.550 M 362 115.500 C 362 122.389, 362.284 124, 363.500 124 C 364.548 124, 365 122.944, 365 120.500 C 365 118.145, 365.464 117, 366.418 117 C 367.199 117, 368.810 118.575, 370 120.500 C 371.190 122.425, 372.801 124, 373.582 124 C 375.555 124, 375.354 122.720, 372.889 119.586 C 370.939 117.107, 370.901 116.767, 372.389 115.123 C 374.575 112.708, 374.419 109.295, 372.066 108.035 C 371.002 107.466, 368.302 107, 366.066 107 L 362 107 362 115.500 M 388 115.500 C 388 122.389, 388.284 124, 389.500 124 C 390.500 124, 391 123, 391 121 C 391 118.467, 391.389 118, 393.500 118 C 396.477 118, 400 114.779, 400 112.057 C 400 109.320, 396.227 107, 391.777 107 L 388 107 388 115.500 M 243.571 110.571 C 241.422 112.721, 241.569 118.300, 243.829 120.345 C 246.335 122.613, 248.593 122.420, 250.443 119.777 C 254.697 113.704, 248.603 105.540, 243.571 110.571 M 298.667 109.667 C 298.300 110.033, 298 112.747, 298 115.698 C 298 121.666, 299.292 122.972, 303.172 120.927 C 306.098 119.386, 306.965 118.094, 306.985 115.250 C 307.012 111.256, 301.067 107.266, 298.667 109.667 M 365 112 C 365 115.033, 366.140 115.651, 369.418 114.393 C 372.898 113.058, 370.641 109, 366.418 109 C 365.509 109, 365 110.077, 365 112 M 391 112.430 C 391 115.256, 391.391 116, 392.878 116 C 393.910 116, 395.347 115.287, 396.070 114.416 C 397.741 112.403, 396.195 109.634, 393.148 109.180 C 391.292 108.904, 391 109.346, 391 112.430" stroke="none" fill="#434343" fill-rule="evenodd"/><path d="M 101.615 45.602 C 98.230 46.667, 95.109 48.761, 91.448 52.422 C 84.006 59.863, 83 63.804, 83 85.500 C 83 107.130, 84.021 111.164, 91.333 118.432 C 98.880 125.934, 103.005 127, 124.500 127 C 145.933 127, 150.142 125.922, 157.545 118.534 C 165.291 110.806, 166.287 106.535, 165.776 83.248 C 165.325 62.706, 164.740 60.191, 158.865 53.499 C 157.138 51.533, 153.650 48.703, 151.113 47.212 C 146.553 44.531, 146.268 44.497, 126.500 44.283 C 110.822 44.113, 105.444 44.398, 101.615 45.602 M 270.397 68 C 270.397 75.975, 270.553 79.237, 270.743 75.250 C 270.932 71.263, 270.932 64.737, 270.743 60.750 C 270.553 56.763, 270.397 60.025, 270.397 68 M 282.221 68.750 L 282 84 291.500 84 L 301 84 301 88.500 L 301 93 286.052 93 L 271.105 93 270.737 87.750 L 270.370 82.500 270.185 88.275 L 270 94.051 285.750 93.775 L 301.500 93.500 301.500 88.500 L 301.500 83.500 292.277 83.213 L 283.053 82.926 282.748 68.213 L 282.442 53.500 282.221 68.750 M 392 74 L 392 94 396.960 94 L 401.919 94 402.210 85.750 C 402.535 76.496, 401.436 77.482, 411.807 77.142 L 416.115 77 415.807 72.750 L 415.500 68.500 410 68.319 C 406.975 68.220, 403.938 68.107, 403.250 68.069 C 402.376 68.021, 402 65.896, 402 61 L 402 54 397 54 L 392 54 392 74 M 305.995 68.296 L 306.490 80.500 306.779 69.084 C 306.938 62.806, 306.716 57.314, 306.284 56.880 C 305.853 56.447, 305.723 61.584, 305.995 68.296 M 318.365 65.500 C 318.368 71, 318.536 73.122, 318.738 70.216 C 318.941 67.311, 318.939 62.811, 318.734 60.216 C 318.528 57.622, 318.363 60, 318.365 65.500 M 114.098 61.655 C 110.395 63.607, 107.614 66.071, 105.258 69.491 C 102.639 73.292, 100.869 74.761, 97.829 75.659 C 95.634 76.307, 92.928 77.660, 91.816 78.666 C 84.690 85.116, 85.629 97.425, 93.651 102.696 C 95.775 104.092, 99.125 104.613, 108.448 105 L 120.500 105.500 121 111.427 L 121.500 117.353 130.250 105.648 C 135.063 99.211, 139 93.520, 139 93.002 C 139 92.478, 133.476 91.935, 126.560 91.780 L 114.120 91.500 116.991 85 C 119.538 79.235, 120.209 78.465, 122.931 78.187 C 126.554 77.817, 126.710 78.687, 123.980 84.040 L 121.959 88 123.987 88 C 125.483 88, 126.801 86.378, 129.008 81.823 C 130.653 78.425, 132 75.256, 132 74.779 C 132 74.302, 128.757 74.045, 124.793 74.206 L 117.585 74.500 112.901 85 L 108.217 95.500 120.109 95.781 C 126.649 95.935, 131.996 96.385, 131.990 96.781 C 131.985 97.176, 130.391 99.500, 128.448 101.945 C 125.190 106.043, 124.870 106.218, 124.341 104.195 C 123.792 102.097, 123.263 102, 112.351 102 C 96.075 102, 91 99.321, 91 90.728 C 91 83.524, 95.200 79, 101.889 79 C 104.286 79, 105.097 78.183, 107.597 73.250 C 111.010 66.515, 116.547 63, 123.744 63 C 131.925 63, 137.580 66.812, 141.171 74.750 C 142.822 78.400, 143.524 79, 146.143 79 C 152.347 79, 157 83.714, 157 90 C 157 96.827, 152.391 101.137, 144.381 101.801 C 141.162 102.068, 138.917 102.773, 138.593 103.619 C 137.837 105.589, 148.223 105.474, 152.349 103.467 C 158.452 100.498, 161.790 92.755, 159.947 85.841 C 158.767 81.414, 153.290 76.335, 148.771 75.478 C 146.192 74.990, 144.865 73.795, 142.500 69.833 C 138.685 63.443, 133.019 59.986, 125.250 59.309 C 120.295 58.877, 118.753 59.201, 114.098 61.655 M 369.250 62.739 C 372.413 62.937, 377.587 62.937, 380.750 62.739 C 383.913 62.541, 381.325 62.378, 375 62.378 C 368.675 62.378, 366.087 62.541, 369.250 62.739 M 369.250 68.739 C 372.413 68.937, 377.587 68.937, 380.750 68.739 C 383.913 68.541, 381.325 68.378, 375 68.378 C 368.675 68.378, 366.087 68.541, 369.250 68.739 M 369.250 76.739 C 372.413 76.937, 377.587 76.937, 380.750 76.739 C 383.913 76.541, 381.325 76.378, 375 76.378 C 368.675 76.378, 366.087 76.541, 369.250 76.739 M 324.269 84.693 C 325.242 84.947, 326.592 84.930, 327.269 84.656 C 327.946 84.382, 327.150 84.175, 325.500 84.195 C 323.850 84.215, 323.296 84.439, 324.269 84.693 M 224.015 92.250 C 224.003 93.669, 224.803 93.970, 228.250 93.840 C 232.300 93.687, 232.336 93.660, 229.009 93.259 C 227.089 93.027, 225.183 92.311, 224.774 91.669 C 224.286 90.902, 224.025 91.102, 224.015 92.250 M 253.253 92 C 253.700 93.656, 264.631 94.766, 266.100 93.304 C 266.544 92.862, 264.169 92.655, 260.822 92.845 C 256.534 93.089, 254.457 92.794, 253.792 91.845 C 253.034 90.766, 252.928 90.796, 253.253 92 M 196.897 93.302 C 197.340 93.742, 200.582 93.962, 204.102 93.790 L 210.500 93.477 203.295 92.989 C 199.333 92.720, 196.453 92.861, 196.897 93.302 M 319.269 93.693 C 320.242 93.947, 321.592 93.930, 322.269 93.656 C 322.946 93.382, 322.150 93.175, 320.500 93.195 C 318.850 93.215, 318.296 93.439, 319.269 93.693 M 360.250 93.745 C 365.063 93.928, 372.938 93.928, 377.750 93.745 C 382.563 93.561, 378.625 93.411, 369 93.411 C 359.375 93.411, 355.438 93.561, 360.250 93.745 M 201 106.563 C 204.960 107.307, 204.825 108.771, 200.750 109.277 C 197.611 109.666, 197.631 109.685, 201.323 109.840 C 204.470 109.972, 205.088 109.690, 204.815 108.250 C 204.593 107.080, 203.410 106.417, 201.242 106.250 C 198.034 106.003, 198.032 106.006, 201 106.563 M 216.424 107.338 C 216.141 108.075, 216.065 112.237, 216.254 116.588 L 216.598 124.500 216.799 115.823 C 216.969 108.503, 217.274 107.075, 218.750 106.689 C 220.390 106.261, 220.388 106.225, 218.719 106.116 C 217.739 106.052, 216.706 106.602, 216.424 107.338 M 267.415 107.362 C 267.127 108.111, 267.056 111.374, 267.257 114.612 L 267.622 120.500 267.811 113.823 C 267.964 108.403, 268.329 107.061, 269.750 106.689 C 271.390 106.261, 271.388 106.225, 269.719 106.116 C 268.739 106.052, 267.702 106.613, 267.415 107.362 M 278.412 107.369 C 278.123 108.122, 278.054 111.160, 278.258 114.119 L 278.630 119.500 278.815 113.323 C 278.963 108.378, 279.349 107.055, 280.750 106.689 C 282.390 106.261, 282.388 106.225, 280.719 106.116 C 279.739 106.052, 278.701 106.616, 278.412 107.369 M 296.762 106.707 C 298.006 106.946, 299.806 106.937, 300.762 106.687 C 301.718 106.437, 300.700 106.241, 298.500 106.252 C 296.300 106.263, 295.518 106.468, 296.762 106.707 M 343.495 106.718 C 349.762 107.153, 350.877 108.724, 345.250 109.190 C 342.238 109.439, 341.437 109.943, 341.180 111.750 C 341.005 112.987, 341.300 114, 341.837 114 C 342.374 114, 342.577 113.100, 342.290 112 C 341.828 110.235, 342.259 110, 345.957 110 C 349.407 110, 350.088 109.691, 349.814 108.250 C 349.545 106.837, 348.374 106.484, 343.735 106.418 L 337.990 106.336 343.495 106.718 M 361.424 107.338 C 361.141 108.075, 361.065 112.237, 361.254 116.588 L 361.598 124.500 361.799 115.810 L 362 107.121 365.750 106.728 L 369.500 106.336 365.719 106.168 C 363.353 106.063, 361.745 106.501, 361.424 107.338 M 387.206 115.250 L 387.411 124.500 387.744 115.808 L 388.076 107.116 391.788 106.726 L 395.500 106.336 391.250 106.168 L 387 106 387.206 115.250 M 193.405 109.250 L 191.500 111.500 194 109.511 C 195.375 108.417, 196.688 107.404, 196.917 107.261 C 197.146 107.117, 196.878 107, 196.322 107 C 195.765 107, 194.453 108.013, 193.405 109.250 M 298.409 110.377 C 298.118 111.134, 298.020 113.943, 298.190 116.618 C 298.446 120.629, 298.851 121.517, 300.500 121.684 C 302.059 121.841, 302.114 121.771, 300.750 121.369 C 299.365 120.961, 299 119.735, 299 115.496 C 299 110.736, 299.251 110.091, 301.250 109.706 L 303.500 109.272 301.219 109.136 C 299.964 109.061, 298.699 109.620, 298.409 110.377 M 393 109.844 C 394.533 110.301, 395.500 111.329, 395.500 112.500 C 395.500 113.685, 394.551 114.674, 393 115.105 C 390.792 115.719, 390.749 115.812, 392.628 115.900 C 397.817 116.143, 398.080 109.734, 392.898 109.298 C 390.505 109.097, 390.505 109.098, 393 109.844 M 250.921 114.751 C 251.399 118.202, 251.468 118.272, 251.798 115.628 C 251.995 114.049, 251.762 112.362, 251.279 111.879 C 250.776 111.376, 250.623 112.601, 250.921 114.751 M 238.252 115.500 C 238.263 117.700, 238.468 118.482, 238.707 117.238 C 238.946 115.994, 238.937 114.194, 238.687 113.238 C 238.437 112.282, 238.241 113.300, 238.252 115.500 M 306.136 114.668 C 306.061 115.861, 305.741 117.661, 305.424 118.668 C 304.880 120.402, 304.910 120.405, 305.990 118.721 C 306.618 117.743, 306.938 115.943, 306.702 114.721 C 306.273 112.502, 306.272 112.502, 306.136 114.668 M 371.958 115.550 C 370.890 116.838, 370.987 117.388, 372.531 118.800 C 374.287 120.405, 374.317 120.402, 373.073 118.750 C 372.018 117.350, 372.004 116.700, 373 115.500 C 373.685 114.675, 374.020 114, 373.745 114 C 373.470 114, 372.666 114.698, 371.958 115.550 M 397.750 116.167 C 396.788 117.175, 396.395 118, 396.878 118 C 397.886 118, 400.483 115.108, 399.893 114.643 C 399.677 114.472, 398.712 115.158, 397.750 116.167 M 341.374 117.467 C 341.065 118.274, 341.043 119.511, 341.327 120.217 C 341.610 120.923, 341.878 120.515, 341.921 119.310 C 341.985 117.535, 342.709 117.047, 345.750 116.728 L 349.500 116.336 345.719 116.168 C 343.198 116.056, 341.749 116.489, 341.374 117.467 M 191 118.889 C 191 119.838, 195.886 124.497, 196.277 123.921 C 196.434 123.689, 195.311 122.291, 193.781 120.814 C 192.251 119.336, 191 118.470, 191 118.889 M 281.079 118.668 C 281.036 119.311, 280.741 120.661, 280.424 121.668 C 279.877 123.409, 279.906 123.412, 280.995 121.712 C 281.626 120.729, 281.920 119.379, 281.650 118.712 C 281.295 117.837, 281.136 117.825, 281.079 118.668 M 307.606 120.848 L 305.712 123.500 308.050 121.278 C 309.337 120.056, 310.189 118.862, 309.944 118.626 C 309.700 118.389, 308.648 119.389, 307.606 120.848 M 249.450 119.903 C 248.928 120.400, 247.600 121.022, 246.500 121.287 C 244.603 121.743, 244.609 121.774, 246.628 121.884 C 247.798 121.948, 249.315 121.325, 250 120.500 C 251.357 118.864, 250.977 118.451, 249.450 119.903 M 240.722 122.050 C 241.944 123.337, 243.138 124.189, 243.374 123.944 C 243.611 123.700, 242.611 122.648, 241.152 121.606 L 238.500 119.712 240.722 122.050" stroke="none" fill="#299ed4" fill-rule="evenodd"/></svg>